<svg xmlns="http://www.w3.org/2000/svg" xmlns:xlink="http://www.w3.org/1999/xlink" width="500" zoomAndPan="magnify" viewBox="0 0 375 374.999991" height="500" preserveAspectRatio="xMidYMid meet" version="1.0"><defs><g/></defs><rect x="-37.5" width="450" fill="#ffffff" y="-37.499999" height="449.999989" fill-opacity="1"/><rect x="-37.5" width="450" fill="#ffffff" y="-37.499999" height="449.999989" fill-opacity="1"/><g fill="#01013f" fill-opacity="1"><g transform="translate(94.639971, 223.223434)"><g><path d="M 1.390625 -7.390625 L 2.4375 -7.390625 L 3.65625 0 L 2.84375 0 L 2.640625 -1.40625 L 1.296875 -1.40625 L 1.109375 0 L 0.28125 0 Z M 1.390625 -2.109375 L 2.53125 -2.109375 L 1.9375 -6.015625 Z M 1.390625 -2.109375 "/></g></g></g><g fill="#01013f" fill-opacity="1"><g transform="translate(98.840911, 223.223434)"><g><path d="M 0.671875 -7.390625 L 1.546875 -7.390625 L 1.546875 0 L 0.671875 0 Z M 0.671875 -7.390625 "/></g></g></g><g fill="#01013f" fill-opacity="1"><g transform="translate(101.311826, 223.223434)"><g><path d="M 0.59375 -7.390625 L 1.984375 -7.390625 C 2.554688 -7.390625 2.945312 -7.210938 3.15625 -6.859375 C 3.363281 -6.515625 3.46875 -6.019531 3.46875 -5.375 L 3.484375 -2.140625 C 3.484375 -1.378906 3.363281 -0.832031 3.125 -0.5 C 2.894531 -0.164062 2.503906 0 1.953125 0 L 0.59375 0 Z M 2.609375 -5.40625 C 2.609375 -5.863281 2.550781 -6.191406 2.4375 -6.390625 C 2.332031 -6.597656 2.15625 -6.703125 1.90625 -6.703125 L 1.46875 -6.703125 L 1.46875 -0.703125 L 1.90625 -0.703125 C 2.070312 -0.703125 2.203125 -0.734375 2.296875 -0.796875 C 2.503906 -0.941406 2.609375 -1.34375 2.609375 -2 Z M 2.609375 -5.40625 "/></g></g></g><g fill="#01013f" fill-opacity="1"><g transform="translate(105.554757, 223.223434)"><g><path d="M 0.609375 -7.390625 L 2.8125 -7.390625 L 2.8125 -6.65625 L 1.46875 -6.65625 L 1.46875 -4.140625 L 2.734375 -4.140625 L 2.734375 -3.421875 L 1.46875 -3.421875 L 1.46875 -0.71875 L 2.828125 -0.71875 L 2.828125 0 L 0.609375 0 Z M 0.609375 -7.390625 "/></g></g></g><g fill="#01013f" fill-opacity="1"><g transform="translate(109.05025, 223.223434)"><g><path d="M 0.625 -7.390625 L 2.90625 -7.390625 L 2.90625 -6.71875 L 1.375 -0.71875 L 2.875 -0.71875 L 2.875 0 L 0.484375 0 L 0.484375 -0.75 L 2 -6.65625 L 0.625 -6.65625 Z M 0.625 -7.390625 "/></g></g></g><g fill="#01013f" fill-opacity="1"><g transform="translate(112.51635, 223.223434)"><g/></g></g><g fill="#01013f" fill-opacity="1"><g transform="translate(114.886486, 223.223434)"><g><path d="M 2.796875 -7.390625 L 3.609375 -7.390625 L 2.5 0 L 1.484375 0 L 0.25 -7.390625 L 1.078125 -7.390625 L 1.5625 -4.265625 L 1.984375 -1.515625 L 2 -1.515625 L 2.375 -4.265625 Z M 2.796875 -7.390625 "/></g></g></g><g fill="#01013f" fill-opacity="1"><g transform="translate(119.011842, 223.223434)"><g><path d="M 0.515625 -5.375 C 0.515625 -6.21875 0.664062 -6.796875 0.96875 -7.109375 C 1.207031 -7.359375 1.554688 -7.484375 2.015625 -7.484375 C 2.671875 -7.484375 3.09375 -7.207031 3.28125 -6.65625 C 3.382812 -6.34375 3.4375 -5.914062 3.4375 -5.375 L 3.4375 -2.125 C 3.4375 -1.351562 3.328125 -0.789062 3.109375 -0.4375 C 2.898438 -0.09375 2.523438 0.078125 1.984375 0.078125 C 1.441406 0.078125 1.0625 -0.09375 0.84375 -0.4375 C 0.625 -0.789062 0.515625 -1.351562 0.515625 -2.125 Z M 2.578125 -5.4375 C 2.578125 -5.90625 2.535156 -6.238281 2.453125 -6.4375 C 2.378906 -6.632812 2.226562 -6.734375 2 -6.734375 C 1.769531 -6.734375 1.609375 -6.628906 1.515625 -6.421875 C 1.429688 -6.222656 1.390625 -5.894531 1.390625 -5.4375 L 1.390625 -2.109375 C 1.390625 -1.546875 1.425781 -1.160156 1.5 -0.953125 C 1.582031 -0.753906 1.742188 -0.65625 1.984375 -0.65625 C 2.222656 -0.65625 2.378906 -0.757812 2.453125 -0.96875 C 2.535156 -1.175781 2.578125 -1.554688 2.578125 -2.109375 Z M 2.578125 -5.4375 "/></g></g></g><g fill="#01013f" fill-opacity="1"><g transform="translate(123.233778, 223.223434)"><g><path d="M 0.125 -7.390625 L 2.5625 -7.390625 L 2.5625 -6.65625 L 1.796875 -6.65625 L 1.796875 0 L 0.9375 0 L 0.9375 -6.65625 L 0.125 -6.65625 Z M 0.125 -7.390625 "/></g></g></g><g fill="#01013f" fill-opacity="1"><g transform="translate(126.166593, 223.223434)"><g><path d="M 0.609375 -7.390625 L 2.15625 -7.390625 C 2.59375 -7.390625 2.90625 -7.296875 3.09375 -7.109375 C 3.289062 -6.929688 3.410156 -6.625 3.453125 -6.1875 C 3.460938 -6.007812 3.46875 -5.726562 3.46875 -5.34375 C 3.46875 -4.96875 3.414062 -4.648438 3.3125 -4.390625 C 3.21875 -4.128906 3.046875 -3.960938 2.796875 -3.890625 C 2.984375 -3.859375 3.125 -3.757812 3.21875 -3.59375 C 3.3125 -3.4375 3.378906 -3.175781 3.421875 -2.8125 C 3.460938 -2.457031 3.484375 -1.925781 3.484375 -1.21875 C 3.484375 -0.519531 3.503906 -0.113281 3.546875 0 L 2.6875 0 C 2.632812 -0.09375 2.609375 -0.921875 2.609375 -2.484375 C 2.609375 -3.015625 2.554688 -3.320312 2.453125 -3.40625 C 2.347656 -3.488281 2.191406 -3.53125 1.984375 -3.53125 L 1.46875 -3.5625 L 1.46875 0 L 0.609375 0 Z M 2.609375 -5.578125 C 2.609375 -6.140625 2.554688 -6.46875 2.453125 -6.5625 C 2.359375 -6.65625 2.210938 -6.703125 2.015625 -6.703125 L 1.46875 -6.703125 L 1.46875 -4.203125 L 2.03125 -4.203125 C 2.195312 -4.203125 2.316406 -4.234375 2.390625 -4.296875 C 2.472656 -4.359375 2.53125 -4.476562 2.5625 -4.65625 C 2.59375 -4.84375 2.609375 -5.132812 2.609375 -5.53125 Z M 2.609375 -5.578125 "/></g></g></g><g fill="#01013f" fill-opacity="1"><g transform="translate(130.426322, 223.223434)"><g><path d="M 0.609375 -7.390625 L 2.8125 -7.390625 L 2.8125 -6.65625 L 1.46875 -6.65625 L 1.46875 -4.140625 L 2.734375 -4.140625 L 2.734375 -3.421875 L 1.46875 -3.421875 L 1.46875 -0.71875 L 2.828125 -0.71875 L 2.828125 0 L 0.609375 0 Z M 0.609375 -7.390625 "/></g></g></g><g fill="#01013f" fill-opacity="1"><g transform="translate(133.921815, 223.223434)"><g/></g></g><g fill="#01013f" fill-opacity="1"><g transform="translate(136.291951, 223.223434)"><g><path d="M 0.609375 -7.390625 L 2.8125 -7.390625 L 2.8125 -6.65625 L 1.46875 -6.65625 L 1.46875 -4.140625 L 2.734375 -4.140625 L 2.734375 -3.421875 L 1.46875 -3.421875 L 1.46875 -0.71875 L 2.828125 -0.71875 L 2.828125 0 L 0.609375 0 Z M 0.609375 -7.390625 "/></g></g></g><g fill="#01013f" fill-opacity="1"><g transform="translate(139.787445, 223.223434)"><g><path d="M 2.875 -7.390625 L 3.65625 -7.390625 L 3.65625 0 L 3.015625 0 L 1.359375 -5.0625 L 1.40625 -3.203125 L 1.40625 0 L 0.609375 0 L 0.609375 -7.390625 L 1.265625 -7.390625 L 2.96875 -2.359375 L 2.875 -4.5 Z M 2.875 -7.390625 "/></g></g></g><g fill="#01013f" fill-opacity="1"><g transform="translate(144.303315, 223.223434)"><g><path d="M 0.59375 -7.390625 L 2.828125 -7.390625 L 2.828125 -6.65625 L 1.46875 -6.65625 L 1.46875 -4.328125 L 2.734375 -4.328125 L 2.734375 -3.59375 L 1.46875 -3.59375 L 1.46875 0 L 0.59375 0 Z M 0.59375 -7.390625 "/></g></g></g><g fill="#01013f" fill-opacity="1"><g transform="translate(147.693831, 223.223434)"><g><path d="M 1.390625 -7.390625 L 2.4375 -7.390625 L 3.65625 0 L 2.84375 0 L 2.640625 -1.40625 L 1.296875 -1.40625 L 1.109375 0 L 0.28125 0 Z M 1.390625 -2.109375 L 2.53125 -2.109375 L 1.9375 -6.015625 Z M 1.390625 -2.109375 "/></g></g></g><g fill="#01013f" fill-opacity="1"><g transform="translate(151.894772, 223.223434)"><g><path d="M 2.875 -7.390625 L 3.65625 -7.390625 L 3.65625 0 L 3.015625 0 L 1.359375 -5.0625 L 1.40625 -3.203125 L 1.40625 0 L 0.609375 0 L 0.609375 -7.390625 L 1.265625 -7.390625 L 2.96875 -2.359375 L 2.875 -4.5 Z M 2.875 -7.390625 "/></g></g></g><g fill="#01013f" fill-opacity="1"><g transform="translate(156.410644, 223.223434)"><g><path d="M 0.125 -7.390625 L 2.5625 -7.390625 L 2.5625 -6.65625 L 1.796875 -6.65625 L 1.796875 0 L 0.9375 0 L 0.9375 -6.65625 L 0.125 -6.65625 Z M 0.125 -7.390625 "/></g></g></g><g fill="#01013f" fill-opacity="1"><g transform="translate(159.343459, 223.223434)"><g/></g></g><g fill="#01013f" fill-opacity="1"><g transform="translate(161.713596, 223.223434)"><g><path d="M 1.15625 -8.1875 L 1.15625 -9.078125 L 2.71875 -8.265625 L 2.71875 -7.796875 Z M 1.390625 -7.390625 L 2.4375 -7.390625 L 3.65625 0 L 2.84375 0 L 2.640625 -1.40625 L 1.296875 -1.40625 L 1.109375 0 L 0.28125 0 Z M 1.390625 -2.109375 L 2.53125 -2.109375 L 1.9375 -6.015625 Z M 1.390625 -2.109375 "/></g></g></g><g fill="#01013f" fill-opacity="1"><g transform="translate(165.914537, 223.223434)"><g/></g></g><g fill="#01013f" fill-opacity="1"><g transform="translate(168.284673, 223.223434)"><g><path d="M 0.609375 -7.390625 L 2.15625 -7.390625 C 2.59375 -7.390625 2.90625 -7.296875 3.09375 -7.109375 C 3.289062 -6.929688 3.410156 -6.625 3.453125 -6.1875 C 3.460938 -6.007812 3.46875 -5.726562 3.46875 -5.34375 C 3.46875 -4.96875 3.414062 -4.648438 3.3125 -4.390625 C 3.21875 -4.128906 3.046875 -3.960938 2.796875 -3.890625 C 2.984375 -3.859375 3.125 -3.757812 3.21875 -3.59375 C 3.3125 -3.4375 3.378906 -3.175781 3.421875 -2.8125 C 3.460938 -2.457031 3.484375 -1.925781 3.484375 -1.21875 C 3.484375 -0.519531 3.503906 -0.113281 3.546875 0 L 2.6875 0 C 2.632812 -0.09375 2.609375 -0.921875 2.609375 -2.484375 C 2.609375 -3.015625 2.554688 -3.320312 2.453125 -3.40625 C 2.347656 -3.488281 2.191406 -3.53125 1.984375 -3.53125 L 1.46875 -3.5625 L 1.46875 0 L 0.609375 0 Z M 2.609375 -5.578125 C 2.609375 -6.140625 2.554688 -6.46875 2.453125 -6.5625 C 2.359375 -6.65625 2.210938 -6.703125 2.015625 -6.703125 L 1.46875 -6.703125 L 1.46875 -4.203125 L 2.03125 -4.203125 C 2.195312 -4.203125 2.316406 -4.234375 2.390625 -4.296875 C 2.472656 -4.359375 2.53125 -4.476562 2.5625 -4.65625 C 2.59375 -4.84375 2.609375 -5.132812 2.609375 -5.53125 Z M 2.609375 -5.578125 "/></g></g></g><g fill="#01013f" fill-opacity="1"><g transform="translate(172.544401, 223.223434)"><g><path d="M 0.609375 -7.390625 L 2.8125 -7.390625 L 2.8125 -6.65625 L 1.46875 -6.65625 L 1.46875 -4.140625 L 2.734375 -4.140625 L 2.734375 -3.421875 L 1.46875 -3.421875 L 1.46875 -0.71875 L 2.828125 -0.71875 L 2.828125 0 L 0.609375 0 Z M 0.953125 -8.421875 L 2.703125 -9.15625 L 2.703125 -8.3125 L 0.953125 -7.953125 Z M 0.953125 -8.421875 "/></g></g></g><g fill="#01013f" fill-opacity="1"><g transform="translate(176.039895, 223.223434)"><g><path d="M 2.609375 -7.390625 L 3.484375 -7.390625 L 3.484375 -1.890625 C 3.484375 -1.203125 3.375 -0.695312 3.15625 -0.375 C 2.9375 -0.0625 2.554688 0.09375 2.015625 0.09375 C 1.484375 0.09375 1.109375 -0.0625 0.890625 -0.375 C 0.671875 -0.695312 0.5625 -1.203125 0.5625 -1.890625 L 0.5625 -7.390625 L 1.4375 -7.390625 L 1.4375 -1.921875 C 1.4375 -1.421875 1.453125 -1.125 1.484375 -1.03125 C 1.523438 -0.9375 1.570312 -0.863281 1.625 -0.8125 C 1.695312 -0.695312 1.828125 -0.640625 2.015625 -0.640625 C 2.210938 -0.640625 2.359375 -0.695312 2.453125 -0.8125 C 2.546875 -0.9375 2.59375 -1.113281 2.59375 -1.34375 C 2.601562 -1.570312 2.609375 -1.757812 2.609375 -1.90625 Z M 2.609375 -7.390625 "/></g></g></g><g fill="#01013f" fill-opacity="1"><g transform="translate(180.341614, 223.223434)"><g><path d="M 0.515625 -5.09375 C 0.460938 -5.269531 0.4375 -5.484375 0.4375 -5.734375 C 0.4375 -6.265625 0.535156 -6.6875 0.734375 -7 C 0.929688 -7.320312 1.3125 -7.484375 1.875 -7.484375 C 2.59375 -7.484375 3.015625 -7.140625 3.140625 -6.453125 C 3.191406 -6.148438 3.21875 -5.773438 3.21875 -5.328125 L 3.21875 -4.890625 L 2.390625 -4.890625 L 2.390625 -5.390625 C 2.390625 -5.859375 2.363281 -6.171875 2.3125 -6.328125 C 2.269531 -6.492188 2.210938 -6.601562 2.140625 -6.65625 C 2.078125 -6.707031 1.988281 -6.734375 1.875 -6.734375 C 1.664062 -6.734375 1.515625 -6.65625 1.421875 -6.5 C 1.328125 -6.34375 1.28125 -6.113281 1.28125 -5.8125 C 1.28125 -5.507812 1.320312 -5.289062 1.40625 -5.15625 C 1.488281 -5.019531 1.59375 -4.882812 1.71875 -4.75 C 1.84375 -4.625 1.910156 -4.554688 1.921875 -4.546875 L 2.421875 -4 C 3.023438 -3.375 3.328125 -2.671875 3.328125 -1.890625 C 3.328125 -1.242188 3.226562 -0.753906 3.03125 -0.421875 C 2.832031 -0.0859375 2.457031 0.078125 1.90625 0.078125 C 1.238281 0.078125 0.816406 -0.210938 0.640625 -0.796875 C 0.535156 -1.128906 0.484375 -1.5625 0.484375 -2.09375 C 0.484375 -2.101562 0.484375 -2.117188 0.484375 -2.140625 L 0.484375 -2.859375 L 1.328125 -2.859375 L 1.328125 -2.109375 C 1.328125 -1.566406 1.363281 -1.1875 1.4375 -0.96875 C 1.519531 -0.757812 1.664062 -0.65625 1.875 -0.65625 C 2.09375 -0.65625 2.238281 -0.703125 2.3125 -0.796875 C 2.394531 -0.898438 2.441406 -1.050781 2.453125 -1.25 C 2.472656 -1.457031 2.484375 -1.691406 2.484375 -1.953125 C 2.484375 -2.460938 2.253906 -2.941406 1.796875 -3.390625 L 1.328125 -3.875 C 0.890625 -4.320312 0.617188 -4.726562 0.515625 -5.09375 Z M 0.515625 -5.09375 "/></g></g></g><g fill="#01013f" fill-opacity="1"><g transform="translate(184.261215, 223.223434)"><g><path d="M 0.515625 -5.09375 C 0.460938 -5.269531 0.4375 -5.484375 0.4375 -5.734375 C 0.4375 -6.265625 0.535156 -6.6875 0.734375 -7 C 0.929688 -7.320312 1.3125 -7.484375 1.875 -7.484375 C 2.59375 -7.484375 3.015625 -7.140625 3.140625 -6.453125 C 3.191406 -6.148438 3.21875 -5.773438 3.21875 -5.328125 L 3.21875 -4.890625 L 2.390625 -4.890625 L 2.390625 -5.390625 C 2.390625 -5.859375 2.363281 -6.171875 2.3125 -6.328125 C 2.269531 -6.492188 2.210938 -6.601562 2.140625 -6.65625 C 2.078125 -6.707031 1.988281 -6.734375 1.875 -6.734375 C 1.664062 -6.734375 1.515625 -6.65625 1.421875 -6.5 C 1.328125 -6.34375 1.28125 -6.113281 1.28125 -5.8125 C 1.28125 -5.507812 1.320312 -5.289062 1.40625 -5.15625 C 1.488281 -5.019531 1.59375 -4.882812 1.71875 -4.75 C 1.84375 -4.625 1.910156 -4.554688 1.921875 -4.546875 L 2.421875 -4 C 3.023438 -3.375 3.328125 -2.671875 3.328125 -1.890625 C 3.328125 -1.242188 3.226562 -0.753906 3.03125 -0.421875 C 2.832031 -0.0859375 2.457031 0.078125 1.90625 0.078125 C 1.238281 0.078125 0.816406 -0.210938 0.640625 -0.796875 C 0.535156 -1.128906 0.484375 -1.5625 0.484375 -2.09375 C 0.484375 -2.101562 0.484375 -2.117188 0.484375 -2.140625 L 0.484375 -2.859375 L 1.328125 -2.859375 L 1.328125 -2.109375 C 1.328125 -1.566406 1.363281 -1.1875 1.4375 -0.96875 C 1.519531 -0.757812 1.664062 -0.65625 1.875 -0.65625 C 2.09375 -0.65625 2.238281 -0.703125 2.3125 -0.796875 C 2.394531 -0.898438 2.441406 -1.050781 2.453125 -1.25 C 2.472656 -1.457031 2.484375 -1.691406 2.484375 -1.953125 C 2.484375 -2.460938 2.253906 -2.941406 1.796875 -3.390625 L 1.328125 -3.875 C 0.890625 -4.320312 0.617188 -4.726562 0.515625 -5.09375 Z M 0.515625 -5.09375 "/></g></g></g><g fill="#01013f" fill-opacity="1"><g transform="translate(188.180812, 223.223434)"><g><path d="M 0.671875 -7.390625 L 1.546875 -7.390625 L 1.546875 0 L 0.671875 0 Z M 0.671875 -7.390625 "/></g></g></g><g fill="#01013f" fill-opacity="1"><g transform="translate(190.651726, 223.223434)"><g><path d="M 0.609375 -7.390625 L 2.15625 -7.390625 C 2.59375 -7.390625 2.90625 -7.296875 3.09375 -7.109375 C 3.289062 -6.929688 3.410156 -6.625 3.453125 -6.1875 C 3.460938 -6.007812 3.46875 -5.726562 3.46875 -5.34375 C 3.46875 -4.96875 3.414062 -4.648438 3.3125 -4.390625 C 3.21875 -4.128906 3.046875 -3.960938 2.796875 -3.890625 C 2.984375 -3.859375 3.125 -3.757812 3.21875 -3.59375 C 3.3125 -3.4375 3.378906 -3.175781 3.421875 -2.8125 C 3.460938 -2.457031 3.484375 -1.925781 3.484375 -1.21875 C 3.484375 -0.519531 3.503906 -0.113281 3.546875 0 L 2.6875 0 C 2.632812 -0.09375 2.609375 -0.921875 2.609375 -2.484375 C 2.609375 -3.015625 2.554688 -3.320312 2.453125 -3.40625 C 2.347656 -3.488281 2.191406 -3.53125 1.984375 -3.53125 L 1.46875 -3.5625 L 1.46875 0 L 0.609375 0 Z M 2.609375 -5.578125 C 2.609375 -6.140625 2.554688 -6.46875 2.453125 -6.5625 C 2.359375 -6.65625 2.210938 -6.703125 2.015625 -6.703125 L 1.46875 -6.703125 L 1.46875 -4.203125 L 2.03125 -4.203125 C 2.195312 -4.203125 2.316406 -4.234375 2.390625 -4.296875 C 2.472656 -4.359375 2.53125 -4.476562 2.5625 -4.65625 C 2.59375 -4.84375 2.609375 -5.132812 2.609375 -5.53125 Z M 2.609375 -5.578125 "/></g></g></g><g fill="#01013f" fill-opacity="1"><g transform="translate(194.911454, 223.223434)"><g/></g></g><g fill="#01013f" fill-opacity="1"><g transform="translate(197.281591, 223.223434)"><g><path d="M 1.15625 -8.1875 L 1.15625 -9.078125 L 2.71875 -8.265625 L 2.71875 -7.796875 Z M 1.390625 -7.390625 L 2.4375 -7.390625 L 3.65625 0 L 2.84375 0 L 2.640625 -1.40625 L 1.296875 -1.40625 L 1.109375 0 L 0.28125 0 Z M 1.390625 -2.109375 L 2.53125 -2.109375 L 1.9375 -6.015625 Z M 1.390625 -2.109375 "/></g></g></g><g fill="#01013f" fill-opacity="1"><g transform="translate(201.482532, 223.223434)"><g/></g></g><g fill="#f91974" fill-opacity="1"><g transform="translate(203.861176, 223.223434)"><g><path d="M 0.609375 -7.390625 L 1.46875 -7.390625 L 1.46875 -0.71875 L 2.84375 -0.71875 L 2.84375 0 L 0.609375 0 Z M 0.609375 -7.390625 "/></g></g></g><g fill="#f91974" fill-opacity="1"><g transform="translate(207.108922, 223.223434)"><g><path d="M 0.46875 -7.390625 L 1.296875 -7.390625 L 1.03125 -4.71875 L 0.71875 -4.71875 Z M 0.46875 -7.390625 "/></g></g></g><g fill="#f91974" fill-opacity="1"><g transform="translate(209.10114, 223.223434)"><g><path d="M 0.609375 -7.390625 L 2.8125 -7.390625 L 2.8125 -6.65625 L 1.46875 -6.65625 L 1.46875 -4.140625 L 2.734375 -4.140625 L 2.734375 -3.421875 L 1.46875 -3.421875 L 1.46875 -0.71875 L 2.828125 -0.71875 L 2.828125 0 L 0.609375 0 Z M 0.953125 -8.421875 L 2.703125 -9.15625 L 2.703125 -8.3125 L 0.953125 -7.953125 Z M 0.953125 -8.421875 "/></g></g></g><g fill="#f91974" fill-opacity="1"><g transform="translate(212.596633, 223.223434)"><g><path d="M 0.515625 -5.25 C 0.515625 -5.8125 0.5625 -6.222656 0.65625 -6.484375 C 0.75 -6.742188 0.847656 -6.9375 0.953125 -7.0625 C 1.191406 -7.332031 1.539062 -7.46875 2 -7.46875 C 2.632812 -7.46875 3.046875 -7.1875 3.234375 -6.625 C 3.335938 -6.300781 3.390625 -5.875 3.390625 -5.34375 L 3.390625 -4.53125 L 2.546875 -4.53125 L 2.546875 -5.34375 C 2.546875 -5.820312 2.519531 -6.144531 2.46875 -6.3125 C 2.414062 -6.476562 2.351562 -6.585938 2.28125 -6.640625 C 2.207031 -6.691406 2.113281 -6.71875 2 -6.71875 C 1.769531 -6.71875 1.609375 -6.609375 1.515625 -6.390625 C 1.429688 -6.171875 1.390625 -5.828125 1.390625 -5.359375 L 1.390625 -2.15625 C 1.390625 -1.59375 1.425781 -1.203125 1.5 -0.984375 C 1.582031 -0.765625 1.738281 -0.65625 1.96875 -0.65625 C 2.195312 -0.65625 2.347656 -0.765625 2.421875 -0.984375 C 2.503906 -1.210938 2.546875 -1.601562 2.546875 -2.15625 L 2.546875 -2.984375 L 3.40625 -2.984375 L 3.40625 -2.171875 C 3.40625 -1.390625 3.296875 -0.816406 3.078125 -0.453125 C 2.867188 -0.0859375 2.5 0.09375 1.96875 0.09375 C 1.445312 0.09375 1.070312 -0.09375 0.84375 -0.46875 C 0.625 -0.851562 0.515625 -1.421875 0.515625 -2.171875 Z M 0.515625 -5.25 "/></g></g></g><g fill="#f91974" fill-opacity="1"><g transform="translate(216.709393, 223.223434)"><g><path d="M 0.515625 -5.375 C 0.515625 -6.21875 0.664062 -6.796875 0.96875 -7.109375 C 1.207031 -7.359375 1.554688 -7.484375 2.015625 -7.484375 C 2.671875 -7.484375 3.09375 -7.207031 3.28125 -6.65625 C 3.382812 -6.34375 3.4375 -5.914062 3.4375 -5.375 L 3.4375 -2.125 C 3.4375 -1.351562 3.328125 -0.789062 3.109375 -0.4375 C 2.898438 -0.09375 2.523438 0.078125 1.984375 0.078125 C 1.441406 0.078125 1.0625 -0.09375 0.84375 -0.4375 C 0.625 -0.789062 0.515625 -1.351562 0.515625 -2.125 Z M 2.578125 -5.4375 C 2.578125 -5.90625 2.535156 -6.238281 2.453125 -6.4375 C 2.378906 -6.632812 2.226562 -6.734375 2 -6.734375 C 1.769531 -6.734375 1.609375 -6.628906 1.515625 -6.421875 C 1.429688 -6.222656 1.390625 -5.894531 1.390625 -5.4375 L 1.390625 -2.109375 C 1.390625 -1.546875 1.425781 -1.160156 1.5 -0.953125 C 1.582031 -0.753906 1.742188 -0.65625 1.984375 -0.65625 C 2.222656 -0.65625 2.378906 -0.757812 2.453125 -0.96875 C 2.535156 -1.175781 2.578125 -1.554688 2.578125 -2.109375 Z M 2.578125 -5.4375 "/></g></g></g><g fill="#f91974" fill-opacity="1"><g transform="translate(220.931329, 223.223434)"><g><path d="M 0.609375 -7.390625 L 1.46875 -7.390625 L 1.46875 -0.71875 L 2.84375 -0.71875 L 2.84375 0 L 0.609375 0 Z M 0.609375 -7.390625 "/></g></g></g><g fill="#f91974" fill-opacity="1"><g transform="translate(224.179076, 223.223434)"><g><path d="M 0.609375 -7.390625 L 2.8125 -7.390625 L 2.8125 -6.65625 L 1.46875 -6.65625 L 1.46875 -4.140625 L 2.734375 -4.140625 L 2.734375 -3.421875 L 1.46875 -3.421875 L 1.46875 -0.71875 L 2.828125 -0.71875 L 2.828125 0 L 0.609375 0 Z M 0.609375 -7.390625 "/></g></g></g><g fill="#01013f" fill-opacity="1"><g transform="translate(227.678434, 223.223434)"><g/></g></g><g fill="#01013f" fill-opacity="1"><g transform="translate(230.04857, 223.223434)"><g><path d="M 0.609375 -7.390625 L 2.8125 -7.390625 L 2.8125 -6.65625 L 1.46875 -6.65625 L 1.46875 -4.140625 L 2.734375 -4.140625 L 2.734375 -3.421875 L 1.46875 -3.421875 L 1.46875 -0.71875 L 2.828125 -0.71875 L 2.828125 0 L 0.609375 0 Z M 0.609375 -7.390625 "/></g></g></g><g fill="#01013f" fill-opacity="1"><g transform="translate(233.544063, 223.223434)"><g><path d="M 0.125 -7.390625 L 2.5625 -7.390625 L 2.5625 -6.65625 L 1.796875 -6.65625 L 1.796875 0 L 0.9375 0 L 0.9375 -6.65625 L 0.125 -6.65625 Z M 0.125 -7.390625 "/></g></g></g><g fill="#01013f" fill-opacity="1"><g transform="translate(236.476878, 223.223434)"><g/></g></g><g fill="#01013f" fill-opacity="1"><g transform="translate(238.847014, 223.223434)"><g><path d="M 0.671875 -7.390625 L 2 -7.390625 C 2.5625 -7.390625 2.941406 -7.257812 3.140625 -7 C 3.335938 -6.75 3.441406 -6.320312 3.453125 -5.71875 L 3.453125 -5.5625 C 3.453125 -5.125 3.410156 -4.78125 3.328125 -4.53125 C 3.242188 -4.289062 3.097656 -4.113281 2.890625 -4 C 3.347656 -3.8125 3.578125 -3.21875 3.578125 -2.21875 L 3.578125 -2.0625 C 3.566406 -1.320312 3.453125 -0.789062 3.234375 -0.46875 C 3.015625 -0.15625 2.640625 0 2.109375 0 L 0.671875 0 Z M 2.703125 -2.34375 C 2.703125 -2.820312 2.660156 -3.15625 2.578125 -3.34375 C 2.503906 -3.539062 2.351562 -3.640625 2.125 -3.640625 L 1.546875 -3.640625 L 1.546875 -0.703125 L 2.078125 -0.703125 C 2.316406 -0.703125 2.476562 -0.796875 2.5625 -0.984375 C 2.65625 -1.179688 2.703125 -1.550781 2.703125 -2.09375 Z M 2.59375 -5.71875 C 2.59375 -5.71875 2.59375 -5.722656 2.59375 -5.734375 C 2.59375 -6.222656 2.503906 -6.515625 2.328125 -6.609375 C 2.242188 -6.648438 2.125 -6.671875 1.96875 -6.671875 L 1.546875 -6.671875 L 1.546875 -4.296875 L 2.03125 -4.296875 C 2.195312 -4.296875 2.316406 -4.320312 2.390625 -4.375 C 2.460938 -4.4375 2.515625 -4.546875 2.546875 -4.703125 C 2.578125 -4.867188 2.59375 -5.132812 2.59375 -5.5 Z M 2.59375 -5.71875 "/></g></g></g><g fill="#01013f" fill-opacity="1"><g transform="translate(243.102543, 223.223434)"><g><path d="M 0.671875 -7.390625 L 1.546875 -7.390625 L 1.546875 0 L 0.671875 0 Z M 0.671875 -7.390625 "/></g></g></g><g fill="#01013f" fill-opacity="1"><g transform="translate(245.573458, 223.223434)"><g><path d="M 0.609375 -7.390625 L 2.8125 -7.390625 L 2.8125 -6.65625 L 1.46875 -6.65625 L 1.46875 -4.140625 L 2.734375 -4.140625 L 2.734375 -3.421875 L 1.46875 -3.421875 L 1.46875 -0.71875 L 2.828125 -0.71875 L 2.828125 0 L 0.609375 0 Z M 0.609375 -7.390625 "/></g></g></g><g fill="#01013f" fill-opacity="1"><g transform="translate(249.068951, 223.223434)"><g><path d="M 2.875 -7.390625 L 3.65625 -7.390625 L 3.65625 0 L 3.015625 0 L 1.359375 -5.0625 L 1.40625 -3.203125 L 1.40625 0 L 0.609375 0 L 0.609375 -7.390625 L 1.265625 -7.390625 L 2.96875 -2.359375 L 2.875 -4.5 Z M 2.875 -7.390625 "/></g></g></g><g fill="#01013f" fill-opacity="1"><g transform="translate(253.584823, 223.223434)"><g/></g></g><g fill="#f91974" fill-opacity="1"><g transform="translate(255.963524, 223.223434)"><g><path d="M 1.390625 -7.390625 L 2.4375 -7.390625 L 3.65625 0 L 2.84375 0 L 2.640625 -1.40625 L 1.296875 -1.40625 L 1.109375 0 L 0.28125 0 Z M 1.390625 -2.109375 L 2.53125 -2.109375 L 1.9375 -6.015625 Z M 1.390625 -2.109375 "/></g></g></g><g fill="#f91974" fill-opacity="1"><g transform="translate(260.164465, 223.223434)"><g><path d="M 2.609375 -7.390625 L 3.484375 -7.390625 L 3.484375 -1.890625 C 3.484375 -1.203125 3.375 -0.695312 3.15625 -0.375 C 2.9375 -0.0625 2.554688 0.09375 2.015625 0.09375 C 1.484375 0.09375 1.109375 -0.0625 0.890625 -0.375 C 0.671875 -0.695312 0.5625 -1.203125 0.5625 -1.890625 L 0.5625 -7.390625 L 1.4375 -7.390625 L 1.4375 -1.921875 C 1.4375 -1.421875 1.453125 -1.125 1.484375 -1.03125 C 1.523438 -0.9375 1.570312 -0.863281 1.625 -0.8125 C 1.695312 -0.695312 1.828125 -0.640625 2.015625 -0.640625 C 2.210938 -0.640625 2.359375 -0.695312 2.453125 -0.8125 C 2.546875 -0.9375 2.59375 -1.113281 2.59375 -1.34375 C 2.601562 -1.570312 2.609375 -1.757812 2.609375 -1.90625 Z M 2.609375 -7.390625 "/></g></g></g><g fill="#f91974" fill-opacity="1"><g transform="translate(264.466183, 223.223434)"><g><path d="M 0.375 -3.765625 L 2.265625 -3.765625 L 2.265625 -3.203125 L 0.375 -3.203125 Z M 0.375 -3.765625 "/></g></g></g><g fill="#f91974" fill-opacity="1"><g transform="translate(267.646744, 223.223434)"><g><path d="M 0.59375 -7.390625 L 1.984375 -7.390625 C 2.554688 -7.390625 2.945312 -7.210938 3.15625 -6.859375 C 3.363281 -6.515625 3.46875 -6.019531 3.46875 -5.375 L 3.484375 -2.140625 C 3.484375 -1.378906 3.363281 -0.832031 3.125 -0.5 C 2.894531 -0.164062 2.503906 0 1.953125 0 L 0.59375 0 Z M 2.609375 -5.40625 C 2.609375 -5.863281 2.550781 -6.191406 2.4375 -6.390625 C 2.332031 -6.597656 2.15625 -6.703125 1.90625 -6.703125 L 1.46875 -6.703125 L 1.46875 -0.703125 L 1.90625 -0.703125 C 2.070312 -0.703125 2.203125 -0.734375 2.296875 -0.796875 C 2.503906 -0.941406 2.609375 -1.34375 2.609375 -2 Z M 2.609375 -5.40625 "/></g></g></g><g fill="#f91974" fill-opacity="1"><g transform="translate(271.889676, 223.223434)"><g><path d="M 0.609375 -7.390625 L 2.8125 -7.390625 L 2.8125 -6.65625 L 1.46875 -6.65625 L 1.46875 -4.140625 L 2.734375 -4.140625 L 2.734375 -3.421875 L 1.46875 -3.421875 L 1.46875 -0.71875 L 2.828125 -0.71875 L 2.828125 0 L 0.609375 0 Z M 0.609375 -7.390625 "/></g></g></g><g fill="#f91974" fill-opacity="1"><g transform="translate(275.385169, 223.223434)"><g><path d="M 0.609375 -7.390625 L 1.46875 -7.390625 L 1.46875 -0.71875 L 2.84375 -0.71875 L 2.84375 0 L 0.609375 0 Z M 0.609375 -7.390625 "/></g></g></g><g fill="#f91974" fill-opacity="1"><g transform="translate(278.632916, 223.223434)"><g><path d="M 1.15625 -8.1875 L 1.15625 -9.078125 L 2.71875 -8.265625 L 2.71875 -7.796875 Z M 1.390625 -7.390625 L 2.4375 -7.390625 L 3.65625 0 L 2.84375 0 L 2.640625 -1.40625 L 1.296875 -1.40625 L 1.109375 0 L 0.28125 0 Z M 1.390625 -2.109375 L 2.53125 -2.109375 L 1.9375 -6.015625 Z M 1.390625 -2.109375 "/></g></g></g><g fill="#01013f" fill-opacity="1"><g transform="translate(282.837718, 223.223434)"><g/></g></g><g fill="#01013f" fill-opacity="1"><g transform="translate(285.207855, 223.223434)"><g><path d="M 0.609375 -7.390625 L 1.59375 -7.390625 L 1.28125 -1.65625 L 0.9375 -1.65625 Z M 0.640625 -0.953125 L 1.5625 -0.953125 L 1.5625 0 L 0.640625 0 Z M 0.640625 -0.953125 "/></g></g></g><path fill="#01013f" d="M 108.890625 153.425781 C 111.523438 157.503906 110.507812 162.617188 106.300781 165.074219 C 104.523438 166.113281 102.488281 166.328125 100.195312 165.726562 C 99.070312 165.425781 97.929688 164.746094 96.777344 163.683594 C 96 162.96875 95.414062 162.027344 95.019531 160.855469 C 94.292969 158.726562 94.378906 156.714844 95.277344 154.808594 C 95.367188 154.613281 95.320312 154.464844 95.132812 154.359375 L 93.273438 153.296875 C 93.023438 153.15625 92.742188 153.40625 92.855469 153.667969 C 93.089844 154.207031 93.226562 154.765625 93.273438 155.339844 C 93.308594 155.835938 93.203125 156.371094 92.945312 156.957031 C 92.632812 157.648438 92.289062 158.308594 91.910156 158.941406 C 91.828125 159.078125 91.644531 159.121094 91.511719 159.027344 L 91.398438 158.945312 C 91.257812 158.847656 91.222656 158.652344 91.320312 158.507812 C 91.734375 157.910156 91.972656 157.242188 92.527344 156.765625 C 93.242188 156.136719 92.792969 154.769531 92.539062 153.972656 C 92.515625 153.902344 92.507812 153.820312 92.523438 153.746094 C 92.636719 153.015625 92.222656 152.511719 91.28125 152.234375 C 90.777344 152.082031 90.726562 151.835938 91.128906 151.496094 L 100.921875 143.234375 C 101.007812 143.160156 101.097656 143.152344 101.195312 143.210938 L 112.746094 150.289062 C 112.847656 150.355469 112.847656 150.507812 112.738281 150.566406 L 109.070312 152.683594 C 108.75 152.867188 108.691406 153.113281 108.890625 153.425781 Z M 108.890625 153.425781 " fill-opacity="1" fill-rule="nonzero"/><path fill="#f91974" d="M 213.882812 165.402344 C 214.460938 166.269531 214.980469 167.230469 215.433594 168.273438 C 215.6875 168.851562 216.246094 169.035156 216.496094 169.625 C 217.070312 170.980469 217.671875 172.261719 218.296875 173.476562 C 218.582031 174.027344 218.425781 174.382812 217.824219 174.550781 L 216.542969 174.90625 C 215.960938 175.070312 215.617188 174.851562 215.507812 174.261719 C 215.238281 172.808594 214.960938 171.40625 214.679688 170.066406 C 214.59375 169.667969 214.761719 169.355469 214.648438 168.988281 C 214.300781 167.867188 213.808594 166.824219 213.167969 165.851562 C 212.980469 165.566406 212.628906 165.445312 212.304688 165.550781 L 201.777344 169.039062 C 201.542969 169.117188 201.304688 169.117188 201.070312 169.035156 L 185.835938 163.933594 C 185.226562 163.726562 185.226562 163.523438 185.835938 163.320312 L 201.050781 158.191406 C 201.308594 158.105469 201.589844 158.105469 201.847656 158.191406 L 216.734375 163.214844 C 217.527344 163.484375 217.527344 163.75 216.734375 164.015625 L 214.050781 164.910156 C 213.78125 165 213.726562 165.167969 213.882812 165.402344 Z M 207.992188 163.234375 C 209.933594 163.230469 211.347656 163.765625 212.550781 165.101562 C 212.761719 165.335938 213.007812 165.382812 213.285156 165.25 L 213.390625 165.195312 C 213.542969 165.121094 213.582031 164.921875 213.472656 164.789062 C 212.332031 163.472656 210.785156 162.726562 208.820312 162.554688 C 206.542969 162.355469 204.191406 162.542969 201.765625 163.109375 C 201.585938 163.152344 201.511719 163.269531 201.542969 163.457031 L 201.558594 163.566406 C 201.578125 163.671875 201.644531 163.71875 201.75 163.703125 C 203.785156 163.394531 205.867188 163.238281 207.992188 163.234375 Z M 207.992188 163.234375 " fill-opacity="1" fill-rule="nonzero"/><path fill="#f91974" d="M 102.902344 194.464844 C 101.625 191.414062 101.101562 188.28125 101.328125 185.058594 C 101.511719 182.480469 102.152344 179.457031 103.160156 177.089844 C 105.242188 172.199219 108.347656 168.046875 112.46875 164.625 C 113.15625 164.054688 113.832031 163.574219 114.480469 163.183594 C 115.488281 162.578125 116.378906 161.867188 117.414062 161.335938 C 121.085938 159.441406 125.09375 158.417969 129.441406 158.257812 C 130.035156 158.238281 130.078125 158.378906 129.566406 158.6875 C 128.175781 159.523438 126.703125 160.203125 125.410156 161.0625 C 124.164062 161.894531 122.902344 162.738281 121.628906 163.59375 C 120.730469 164.199219 119.964844 164.796875 119.328125 165.382812 C 118.371094 166.273438 117.277344 166.984375 116.390625 167.945312 C 115.460938 168.953125 114.566406 169.945312 113.703125 170.925781 C 112.847656 171.902344 112.265625 173.0625 111.597656 174.167969 C 109.855469 177.054688 108.886719 180.257812 108.695312 183.78125 C 108.476562 187.761719 108.851562 191.671875 109.828125 195.507812 C 110.53125 198.285156 111.480469 201.234375 112.683594 204.347656 C 112.8125 204.679688 112.71875 204.757812 112.402344 204.59375 C 111.070312 203.894531 109.792969 203.09375 108.703125 202.035156 C 107.714844 201.070312 106.65625 200.296875 105.792969 199.167969 C 104.425781 197.375 103.460938 195.808594 102.902344 194.464844 Z M 102.902344 194.464844 " fill-opacity="1" fill-rule="nonzero"/><path fill="#01013f" d="M 87.132812 166.972656 C 85.609375 166.066406 84.25 164.996094 82.707031 164.117188 C 81.914062 163.667969 81.109375 163.242188 80.292969 162.835938 C 80.003906 162.691406 80.023438 162.613281 80.339844 162.597656 C 84.066406 162.433594 87.53125 162.90625 90.738281 164.027344 C 92.949219 164.796875 95.386719 166.742188 97.496094 168.140625 C 100.75 170.304688 103.652344 169.945312 107.011719 168.273438 C 107.246094 168.15625 107.285156 168.199219 107.125 168.410156 C 105.503906 170.582031 104.292969 172.417969 103.507812 173.910156 C 101.347656 178.003906 100.25 182.335938 100.203125 186.910156 C 100.195312 187.277344 100.136719 187.285156 100.023438 186.941406 C 98.742188 183.050781 97.644531 179.285156 95.585938 175.5 C 95.078125 174.566406 94.496094 173.75 93.835938 173.039062 C 92.902344 172.03125 92.058594 170.851562 90.996094 170.046875 C 89.679688 169.046875 88.519531 167.800781 87.132812 166.972656 Z M 87.132812 166.972656 " fill-opacity="1" fill-rule="nonzero"/><path fill="#f91974" d="M 192.429688 172.21875 C 192.015625 172.464844 191.597656 172.707031 191.175781 172.953125 C 190.960938 173.078125 190.695312 172.914062 190.710938 172.667969 L 191.042969 167.160156 C 191.0625 166.78125 191.253906 166.652344 191.613281 166.777344 L 200.078125 169.675781 C 200.667969 169.878906 200.65625 169.996094 200.03125 170.03125 C 197.21875 170.179688 194.683594 170.914062 192.429688 172.21875 Z M 192.429688 172.21875 " fill-opacity="1" fill-rule="nonzero"/><path fill="#f91974" d="M 211.289062 166.773438 C 211.640625 166.652344 211.824219 166.777344 211.839844 167.148438 L 212.117188 172.675781 C 212.121094 172.796875 211.988281 172.871094 211.886719 172.808594 C 209.183594 171.03125 206.210938 170.097656 202.976562 170.011719 C 202.285156 169.988281 202.269531 169.871094 202.921875 169.644531 Z M 211.289062 166.773438 " fill-opacity="1" fill-rule="nonzero"/><path fill="#f91974" d="M 218.628906 187.933594 C 218.597656 196.871094 210.90625 204.09375 201.457031 204.0625 C 192 204.027344 184.363281 196.753906 184.394531 187.8125 C 184.425781 178.871094 192.117188 171.648438 201.566406 171.683594 C 211.023438 171.71875 218.660156 178.992188 218.628906 187.933594 Z M 201.46875 197.839844 C 206.867188 197.867188 211.265625 193.414062 211.292969 187.890625 C 211.324219 182.367188 206.972656 177.867188 201.574219 177.839844 C 196.175781 177.808594 191.777344 182.261719 191.746094 187.785156 C 191.714844 193.3125 196.070312 197.808594 201.46875 197.839844 Z M 201.46875 197.839844 " fill-opacity="1" fill-rule="nonzero"/><path fill="#01013f" d="M 132.492188 195.394531 C 134.164062 198.042969 138.335938 198.0625 140.972656 197.207031 C 143.785156 196.296875 144.804688 192.65625 144.8125 189.933594 C 144.824219 183.949219 144.824219 178.136719 144.8125 172.496094 C 144.804688 172.390625 144.894531 172.304688 145.003906 172.304688 L 151.796875 172.304688 C 151.902344 172.304688 151.992188 172.390625 151.992188 172.496094 C 152 178.378906 151.996094 184.40625 151.972656 190.585938 C 151.96875 192.804688 151.417969 195.0625 150.3125 197.355469 C 149.535156 198.980469 148.378906 200.324219 146.847656 201.402344 C 143.277344 203.90625 139.453125 204.160156 135.171875 203.789062 C 133.078125 203.605469 131.015625 202.816406 128.988281 201.429688 C 125.152344 198.804688 123.78125 194.121094 123.792969 189.414062 C 123.8125 183.5625 123.8125 177.921875 123.800781 172.496094 C 123.800781 172.363281 123.863281 172.300781 123.996094 172.300781 L 130.792969 172.304688 C 130.90625 172.304688 130.996094 172.394531 130.988281 172.503906 C 130.96875 177.289062 130.964844 182.273438 130.972656 187.453125 C 130.980469 190.90625 130.949219 192.941406 132.492188 195.394531 Z M 132.492188 195.394531 " fill-opacity="1" fill-rule="nonzero"/><path fill="#01013f" d="M 172.730469 178.339844 L 172.734375 203.277344 C 172.734375 203.382812 172.648438 203.46875 172.542969 203.46875 L 165.710938 203.46875 C 165.601562 203.46875 165.519531 203.382812 165.519531 203.277344 L 165.515625 178.339844 C 165.515625 178.234375 165.429688 178.148438 165.324219 178.148438 L 155.765625 178.152344 C 155.660156 178.152344 155.574219 178.066406 155.574219 177.960938 L 155.570312 172.503906 C 155.570312 172.398438 155.65625 172.3125 155.761719 172.3125 L 182.476562 172.308594 C 182.585938 172.308594 182.667969 172.394531 182.667969 172.5 L 182.667969 177.957031 C 182.667969 178.0625 182.585938 178.148438 182.476562 178.148438 L 172.921875 178.148438 C 172.8125 178.148438 172.730469 178.234375 172.730469 178.339844 Z M 172.730469 178.339844 " fill-opacity="1" fill-rule="nonzero"/><path fill="#01013f" d="M 231.113281 194.980469 L 231.109375 203.359375 C 231.109375 203.421875 231.058594 203.472656 230.996094 203.472656 L 224.089844 203.476562 C 224.019531 203.476562 223.964844 203.421875 223.964844 203.351562 L 223.953125 172.472656 C 223.953125 172.378906 224.023438 172.304688 224.117188 172.304688 C 228.816406 172.304688 233.277344 172.3125 237.5 172.332031 C 240.101562 172.34375 242.535156 172.835938 244.796875 173.8125 C 246.445312 174.527344 247.894531 175.765625 249.140625 177.519531 C 251.484375 180.8125 251.550781 186.328125 249.171875 189.613281 C 247.933594 191.316406 246.457031 192.546875 244.738281 193.3125 C 244.5625 193.386719 244.527344 193.503906 244.644531 193.65625 C 245.933594 195.398438 247.144531 197.132812 248.273438 198.859375 C 249.273438 200.386719 250.496094 201.652344 251.300781 203.351562 C 251.324219 203.40625 251.289062 203.472656 251.222656 203.472656 L 244.027344 203.472656 C 243.871094 203.472656 243.753906 203.410156 243.667969 203.28125 L 237.855469 194.898438 C 237.765625 194.769531 237.636719 194.699219 237.472656 194.699219 L 231.390625 194.703125 C 231.207031 194.703125 231.113281 194.796875 231.113281 194.980469 Z M 231.109375 178.292969 L 231.109375 188.875 C 231.109375 188.945312 231.167969 189.003906 231.238281 189.003906 L 237.785156 189.003906 C 241.015625 189.003906 243.628906 186.753906 243.628906 183.972656 L 243.628906 183.195312 C 243.628906 180.414062 241.015625 178.160156 237.785156 178.160156 L 231.238281 178.160156 C 231.167969 178.160156 231.109375 178.222656 231.109375 178.292969 Z M 231.109375 178.292969 " fill-opacity="1" fill-rule="nonzero"/><path fill="#01013f" d="M 276.992188 196.800781 L 262.644531 196.800781 C 262.570312 196.800781 262.5 196.847656 262.472656 196.917969 L 259.9375 203.34375 C 259.90625 203.417969 259.839844 203.464844 259.761719 203.464844 L 252.738281 203.476562 C 252.601562 203.476562 252.515625 203.335938 252.570312 203.214844 L 266.273438 172.421875 C 266.304688 172.351562 266.371094 172.308594 266.449219 172.308594 L 273.332031 172.3125 C 273.410156 172.3125 273.476562 172.355469 273.507812 172.425781 L 287.25 203.214844 C 287.304688 203.335938 287.214844 203.476562 287.082031 203.476562 L 279.890625 203.464844 C 279.816406 203.464844 279.746094 203.417969 279.714844 203.34375 L 277.164062 196.917969 C 277.136719 196.847656 277.066406 196.800781 276.992188 196.800781 Z M 265.027344 191.058594 C 264.988281 191.148438 265.050781 191.246094 265.152344 191.246094 L 274.546875 191.246094 C 274.644531 191.246094 274.707031 191.148438 274.667969 191.058594 L 269.976562 179.625 C 269.929688 179.515625 269.765625 179.515625 269.71875 179.625 Z M 265.027344 191.058594 " fill-opacity="1" fill-rule="nonzero"/></svg>